<?xml version="1.0" encoding="utf-8"?>
<!-- Generator: Adobe Illustrator 18.1.1, SVG Export Plug-In . SVG Version: 6.00 Build 0)  -->
<svg  width="30" height="30" version="1.1" id="Capa_1" xmlns="http://www.w3.org/2000/svg" xmlns:xlink="http://www.w3.org/1999/xlink" x="0px" y="0px"
	 viewBox="-392.4 368.6 65.8 89.7" enable-background="new -392.4 368.6 65.8 89.7" xml:space="preserve">
<g>
	<path d="M-359.5,368.6c-18.2,0-32.9,14.7-32.9,32.9c0,27.1,32.9,56.8,32.9,56.8s32.9-29.8,32.9-56.8
		C-326.6,383.3-341.3,368.6-359.5,368.6z M-359.5,425.8c-13.4,0-24.3-10.9-24.3-24.3s10.9-24.3,24.3-24.3s24.3,10.9,24.3,24.3
		S-346.1,425.8-359.5,425.8z"/>
	<path fill=" #ff0000" d="M-340.2,396.2c-0.2-0.2-0.5-0.4-0.8-0.4h-3.8c-0.9-2.5-2.2-4.9-3.5-5.8c-4.8-3.2-17.5-3.2-22.4,0c-1.4,0.9-2.6,3.3-3.5,5.8
		h-3.8c-0.3,0-0.6,0.1-0.8,0.4c-0.2,0.2-0.3,0.5-0.2,0.8l0.6,2.7c0.1,0.5,0.5,0.8,1,0.8h1.1c-1.1,1.3-1.6,2.8-1.6,4.4
		c0,2,0.7,3.7,2.1,5c0,0,0,0,0,0v3.8c0,0.8,0.7,1.5,1.5,1.5h3.5c0.8,0,1.5-0.7,1.5-1.5v-1.5h19.6v1.5c0,0.8,0.7,1.5,1.5,1.5h3.5
		c0.8,0,1.5-0.7,1.5-1.5v-3.7c1.4-1.3,2.1-3.1,2.1-4.9c0-1.6-0.5-3.3-1.7-4.6h1.2c0.5,0,0.9-0.3,1-0.8l0.6-2.7
		C-339.9,396.7-340,396.4-340.2,396.2z M-369,392.5c3.8-2.5,15.2-2.5,19.1,0c0.7,0.5,1.7,2.5,2.6,4.9h-24.2
		C-370.7,395-369.7,393-369,392.5z M-370.5,408.3c-1.6,0-3-1.3-3-3s1.3-3,3-3c1.6,0,3,1.3,3,3S-368.9,408.3-370.5,408.3z
		 M-348.4,408.3c-1.6,0-3-1.3-3-3s1.3-3,3-3c1.6,0,3,1.3,3,3S-346.7,408.3-348.4,408.3z"/>
</g>
</svg>
