<?xml version="1.0" encoding="utf-8"?>
<!-- Generator: Adobe Illustrator 18.1.1, SVG Export Plug-In . SVG Version: 6.00 Build 0)  -->
<svg version="1.1" id="Capa_1" xmlns="http://www.w3.org/2000/svg" xmlns:xlink="http://www.w3.org/1999/xlink" x="0px" y="0px"
	 viewBox="0 422.6 800 154.5" enable-background="new 0 422.6 800 154.5" xml:space="preserve">
<g>
	<path fill="#10690B" d="M134.3,577.1h-114C9.1,577.1,0,568,0,556.8V442.9c0-11.2,9.1-20.3,20.3-20.3h114c11.2,0,20.3,9.1,20.3,20.3
		v114C154.6,568,145.4,577.1,134.3,577.1z"/>
	<g>
		<path fill="#FFFFFF" d="M77.3,567.5L77.3,567.5c-37.2,0-67.6-30.4-67.6-67.6l0,0c0-37.2,30.4-67.6,67.6-67.6l0,0
			c37.2,0,67.6,30.4,67.6,67.6l0,0C144.9,537.1,114.4,567.5,77.3,567.5z"/>
		<g>
			<path fill="#10690B" d="M122.5,531.3c5.1-0.5,7.4-2.7,8.2-6.5c0,0,0.2-17.8-0.1-20.1c-0.3-2.9-2.3-5.3-3.5-6.4
				c-0.6-2.1-3.5-7.6-18.8-11c-10.8-2.4-14.4-3.8-15.5-4.4l-0.6-0.6c-0.9-0.9-22.3-23-49.6-22.4l44.1,23.2l21.4,48.3L122.5,531.3
				L122.5,531.3z"/>
			<path fill="#10690B" d="M104.9,541.5c7,0,12.7-5.7,12.7-12.7s-5.7-12.7-12.7-12.7V541.5z"/>
			<g>
				<g>
					<path fill="#10690B" d="M69.9,533.3c0-17.7-14.4-32-32-32c-4.5,0-8.1-3.7-8.1-8.1s3.7-8.1,8.1-8.1c26.6,0,48.3,21.7,48.3,48.3
						c0,4.5-3.7,8.1-8.1,8.1C73.6,541.5,69.9,537.8,69.9,533.3z"/>
				</g>
				<g>
					<path fill="#10690B" d="M43.2,533.3c0-2.9-2.4-5.2-5.2-5.2c-4.5,0-8.1-3.7-8.1-8.1c0-4.5,3.7-8.1,8.1-8.1
						c11.9,0,21.5,9.6,21.5,21.5c0,4.5-3.7,8.1-8.1,8.1S43.2,537.8,43.2,533.3z"/>
				</g>
				<g>
					<path fill="#10690B" d="M96.7,533.3c0-32.4-26.4-58.8-58.8-58.8c-4.5,0-8.1-3.7-8.1-8.1c0-4.5,3.7-8.1,8.1-8.1
						c20,0,38.9,7.8,53.1,22c14.2,14.2,22,33,22,53.1c0,4.5-3.7,8.1-8.1,8.1C100.3,541.5,96.7,537.8,96.7,533.3z"/>
				</g>
			</g>
		</g>
	</g>
</g>
<g>
	<path d="M245.7,529.9c1.2-5.9,0.3-10.5-2.6-13.8c-2.9-3.3-8.8-6.6-17.6-10c-9.4-3.4-16.1-7.3-20.2-11.6c-4-4.3-5.2-10.7-3.5-19
		c1.5-7.3,5.1-12.9,10.8-16.8c5.7-3.9,12.6-5.9,20.7-5.9c8.9,0,15.8,2.6,20.8,7.8c5,5.2,6.5,12.3,4.6,21.1l-0.1,0.3h-7.3
		c1.4-6.8,0.3-12.3-3.2-16.4c-3.5-4.1-8.9-6.1-16.1-6.1c-5.5,0-10.4,1.6-14.7,4.7c-4.3,3.1-6.9,6.8-7.8,11.1
		c-1.2,6.1-0.5,10.7,2.2,13.9c2.7,3.2,8.5,6.5,17.6,10c9.4,3.5,16.2,7.4,20.3,11.9c4.1,4.5,5.4,10.7,3.8,18.7
		c-1.5,7.5-5.3,13.1-11.3,16.9c-6,3.8-13.4,5.7-22,5.7c-8.8,0-16.2-2.4-22.1-7.1c-6-4.7-7.9-12-5.7-21.8l0.2-0.4h7.1
		c-1.7,8.4-0.3,14.2,4.2,17.5c4.5,3.3,10.4,4.9,17.6,4.9c5.7,0,10.9-1.5,15.7-4.6C242,537.9,244.8,534.2,245.7,529.9z"/>
	<path d="M294.2,460.6l-3.7,18.4h14.6l-1.3,6.5h-14.6l-9.4,46.9c-1,5.1-0.9,8.5,0.2,10.3c1.2,1.8,3.1,2.7,5.8,2.7
		c1.1,0,2.3-0.1,3.6-0.2c1.3-0.1,2.6-0.3,4-0.5l-0.1,5.9c-1.3,0.6-2.9,1-4.7,1.3c-1.9,0.3-3.7,0.5-5.5,0.5c-4.4,0-7.7-1.6-9.9-4.9
		c-2.2-3.2-2.6-8.3-1.1-15.1l9.4-46.9h-11.5l1.3-6.5h11.5l3.7-18.4H294.2z"/>
	<path d="M351.1,485.9l-5.6-0.4c-4.3,0-8.3,1.5-11.9,4.5c-3.6,3-6.6,7-8.9,12l-9.8,49.1h-7.7l14.4-72h6.8l-1.5,11.9
		c2.7-4.2,6-7.5,9.6-9.8c3.7-2.3,7.8-3.5,12.2-3.5c0.8,0,1.7,0.1,2.7,0.2c0.9,0.2,1.7,0.3,2.2,0.5L351.1,485.9z"/>
	<path d="M375.8,552.4c-8.1,0-14.5-3.3-19.2-10c-4.7-6.7-6.2-15.1-4.5-25.2l0.6-3.7c1.7-10.7,5.8-19.3,12.3-25.9
		c6.5-6.6,13.8-9.9,21.7-9.9c7.9,0,13.9,2.8,17.8,8.5c3.9,5.6,5.2,13.1,3.7,22.3l-1.1,6.8h-47.1l-0.3,1.9
		c-1.3,8.4-0.5,15.2,2.6,20.5c3.1,5.3,7.9,7.9,14.4,7.9c4.4,0,8.4-0.7,11.9-2.1c3.6-1.4,6.7-3.3,9.4-5.8l2.4,5.5
		c-3,2.8-6.5,5.1-10.6,6.8C385.8,551.6,381.1,552.4,375.8,552.4z M385.6,484.5c-5.2,0-10,2.3-14.5,6.8c-4.5,4.5-7.6,10.1-9.3,16.8
		l0.1,0.4h38.6l0.3-2c1-6.5,0.2-11.8-2.5-15.9C395.8,486.5,391.5,484.5,385.6,484.5z"/>
	<path d="M441.8,552.4c-8.1,0-14.5-3.3-19.2-10c-4.7-6.7-6.2-15.1-4.5-25.2l0.6-3.7c1.7-10.7,5.8-19.3,12.3-25.9
		c6.5-6.6,13.8-9.9,21.7-9.9c7.9,0,13.9,2.8,17.8,8.5c3.9,5.6,5.2,13.1,3.7,22.3l-1.1,6.8h-47.1l-0.3,1.9
		c-1.3,8.4-0.5,15.2,2.6,20.5c3.1,5.3,7.9,7.9,14.4,7.9c4.4,0,8.4-0.7,11.9-2.1c3.6-1.4,6.7-3.3,9.4-5.8l2.4,5.5
		c-3,2.8-6.5,5.1-10.6,6.8S447.1,552.4,441.8,552.4z M451.7,484.5c-5.2,0-10,2.3-14.5,6.8c-4.5,4.5-7.6,10.1-9.3,16.8l0.1,0.4h38.6
		l0.3-2c1-6.5,0.2-11.8-2.5-15.9C461.8,486.5,457.6,484.5,451.7,484.5z"/>
	<path d="M511.8,460.6l-3.7,18.4h14.6l-1.3,6.5h-14.6l-9.4,46.9c-1,5.1-0.9,8.5,0.2,10.3c1.2,1.8,3.1,2.7,5.8,2.7
		c1.1,0,2.3-0.1,3.6-0.2c1.3-0.1,2.6-0.3,4-0.5l-0.1,5.9c-1.3,0.6-2.9,1-4.7,1.3c-1.9,0.3-3.7,0.5-5.5,0.5c-4.4,0-7.7-1.6-9.9-4.9
		c-2.2-3.2-2.6-8.3-1.1-15.1l9.4-46.9h-11.5l1.3-6.5h11.5l3.7-18.4H511.8z"/>
	<path d="M587.1,505.6h-43.6l-9,45.4h-7.7l19.4-96.9h57.6l-1.3,6.8h-50l-7.5,37.9h43.6L587.1,505.6z"/>
	<path d="M607.1,551h-7.6l20.8-103.8h7.7L607.1,551z"/>
	<path d="M654.2,552.4c-8.1,0-14.5-3.3-19.2-10c-4.7-6.7-6.2-15.1-4.5-25.2l0.6-3.7c1.7-10.7,5.8-19.3,12.3-25.9
		c6.5-6.6,13.8-9.9,21.7-9.9c7.9,0,13.9,2.8,17.8,8.5c3.9,5.6,5.2,13.1,3.7,22.3l-1.1,6.8h-47.1l-0.3,1.9
		c-1.3,8.4-0.5,15.2,2.6,20.5c3.1,5.3,7.9,7.9,14.4,7.9c4.4,0,8.4-0.7,11.9-2.1c3.6-1.4,6.7-3.3,9.4-5.8l2.4,5.5
		c-3,2.8-6.5,5.1-10.6,6.8C664.2,551.6,659.5,552.4,654.2,552.4z M664,484.5c-5.2,0-10,2.3-14.5,6.8c-4.5,4.5-7.6,10.1-9.3,16.8
		l0.1,0.4H679l0.3-2c1-6.5,0.2-11.8-2.5-15.9C674.2,486.5,669.9,484.5,664,484.5z"/>
	<path d="M720.2,552.4c-8.1,0-14.5-3.3-19.2-10c-4.7-6.7-6.2-15.1-4.5-25.2l0.6-3.7c1.7-10.7,5.8-19.3,12.3-25.9
		c6.5-6.6,13.8-9.9,21.7-9.9c7.9,0,13.9,2.8,17.8,8.5c3.9,5.6,5.2,13.1,3.7,22.3l-1.1,6.8h-47.1l-0.3,1.9
		c-1.3,8.4-0.5,15.2,2.6,20.5c3.1,5.3,7.9,7.9,14.4,7.9c4.4,0,8.4-0.7,11.9-2.1c3.6-1.4,6.7-3.3,9.4-5.8l2.4,5.5
		c-3,2.8-6.5,5.1-10.6,6.8C730.3,551.6,725.5,552.4,720.2,552.4z M730.1,484.5c-5.2,0-10,2.3-14.5,6.8c-4.5,4.5-7.6,10.1-9.3,16.8
		l0.1,0.4H745l0.3-2c1-6.5,0.2-11.8-2.5-15.9C740.2,486.5,736,484.5,730.1,484.5z"/>
	<path d="M790.2,460.6l-3.7,18.4h14.6l-1.3,6.5h-14.6l-9.4,46.9c-1,5.1-0.9,8.5,0.2,10.3c1.2,1.8,3.1,2.7,5.8,2.7
		c1.1,0,2.3-0.1,3.6-0.2c1.3-0.1,2.6-0.3,4-0.5l-0.1,5.9c-1.3,0.6-2.9,1-4.7,1.3c-1.9,0.3-3.7,0.5-5.5,0.5c-4.4,0-7.7-1.6-9.9-4.9
		c-2.2-3.2-2.6-8.3-1.1-15.1l9.4-46.9h-11.5l1.3-6.5h11.5l3.7-18.4H790.2z"/>
</g>
</svg>
