<?xml version="1.0" encoding="utf-8"?>
<!-- Generator: Adobe Illustrator 21.1.0, SVG Export Plug-In . SVG Version: 6.00 Build 0)  -->
<svg version="1.1" id="Group_2" xmlns="http://www.w3.org/2000/svg" xmlns:xlink="http://www.w3.org/1999/xlink" x="0px" y="0px"
	 viewBox="0 0 638 179.9" style="enable-background:new 0 0 638 179.9;" xml:space="preserve">
<style type="text/css">
	.st0{enable-background:new    ;}
	.st1{fill:#008DEA;}
	.st2{fill:#87CCF8;}
</style>
<g class="st0">
	<path class="st1" d="M34.7,159c-15.2,0-26.5-4.8-33.9-14.3l12.9-10.9c3.1,3.3,6.4,5.9,9.9,7.6c3.5,1.7,7.4,2.6,11.9,2.6
		c3.5,0,6.3-0.7,8.5-2.2c2.2-1.5,3.3-3.4,3.3-5.9c0-1-0.2-1.8-0.6-2.6c-0.4-0.8-1.1-1.6-2.1-2.3c-1-0.8-2.4-1.6-4.1-2.4
		c-1.7-0.8-3.8-1.8-6.4-2.8c-2.5-1-4.9-2.2-7.2-3.4c-2.3-1.2-4.3-2.7-6.1-4.3s-3.2-3.6-4.2-5.7c-1-2.1-1.6-4.7-1.6-7.5
		c0-4,0.8-7.6,2.5-10.7c1.7-3.1,3.9-5.8,6.7-8c2.8-2.2,6.1-3.9,9.8-5.1c3.7-1.2,7.7-1.8,11.8-1.8c6.7,0,12.4,1,17.1,3.1
		c4.7,2.1,8.7,4.9,12,8.4l-11.8,11.8c-3-2.7-5.9-4.8-8.7-6.2c-2.8-1.4-6.2-2.1-9.9-2.1c-3.6,0-6.4,0.8-8.4,2.5
		c-2,1.7-2.9,3.5-2.9,5.4c0,1,0.2,1.9,0.7,2.7c0.4,0.8,1.2,1.5,2.2,2.3c1,0.7,2.4,1.5,4.2,2.3c1.7,0.8,3.9,1.8,6.6,2.9
		c2.7,1.1,5.1,2.3,7.4,3.6c2.3,1.3,4.2,2.7,5.9,4.3c1.7,1.6,3,3.5,3.9,5.7c1,2.1,1.4,4.6,1.4,7.4c0,4.1-0.9,7.7-2.6,10.9
		c-1.7,3.2-4,5.9-6.8,8.2c-2.8,2.2-6.1,3.9-9.8,5.1C42.7,158.5,38.8,159,34.7,159z"/>
	<path class="st1" d="M93.9,158.9c-5.1,0-8.9-1.1-11.4-3.3c-2.5-2.2-3.8-5-3.8-8.3c0-1.3,0.1-2.5,0.3-3.7c0.2-1.2,0.5-2.4,0.8-3.8
		l7.2-27h-7.1l3.9-14.4h7.1L95,83.2h16.9l-4.1,15.2h14l-3.9,14.4h-14l-6.7,24.9c-0.1,0.4-0.3,0.9-0.3,1.4c-0.1,0.5-0.1,0.9-0.1,1.3
		c0,2.4,1.5,3.5,4.6,3.5c1.3,0,2.8-0.2,4.3-0.5c1.5-0.3,3-0.7,4.4-1.3l-3.9,14.3C102.6,158.1,98.6,158.9,93.9,158.9z"/>
	<path class="st1" d="M134.2,98.4h16.9l-3.2,12c3-4.4,6.3-7.8,9.9-10.2c3.6-2.3,7.8-3.3,12.7-2.9l-4.8,17.6h-0.9
		c-5.6,0-10.5,1.7-14.7,5.1c-4.1,3.4-7.3,9-9.3,16.8l-5.7,21.1h-16.9L134.2,98.4z"/>
	<path class="st1" d="M185.7,134.1c0.3,3.6,1.5,6.4,3.7,8.5c2.1,2.1,5.4,3.2,9.9,3.2c2.2,0,4.4-0.4,6.4-1.1c2.1-0.7,4.3-2,6.8-3.7
		l7.8,10.4c-2.7,2.2-5.9,4.1-9.6,5.6c-3.7,1.5-8.2,2.3-13.3,2.3c-4.3,0-8.1-0.6-11.6-1.8c-3.4-1.2-6.3-3-8.7-5.2
		c-2.4-2.3-4.2-5-5.5-8.3c-1.3-3.3-1.9-7-1.9-11.1c0-4.3,0.8-8.6,2.5-12.8c1.7-4.3,4.1-8.1,7.2-11.4c3.1-3.4,6.8-6.1,11.2-8.2
		c4.3-2.1,9.2-3.1,14.5-3.1c3.8,0,7.3,0.6,10.3,1.8c3,1.2,5.6,2.8,7.7,4.9c2.1,2.1,3.6,4.5,4.7,7.3c1.1,2.8,1.6,5.9,1.6,9.2
		c0,2.1-0.3,4.4-0.8,6.7c-0.5,2.3-1.3,4.6-2.2,6.9H185.7z M212.8,123.5c0.4-1.3,0.6-2.6,0.6-3.9c0-2.4-0.8-4.5-2.3-6.2
		c-1.5-1.7-4-2.6-7.5-2.6c-3.8,0-7.2,1.2-10.2,3.5c-2.9,2.3-5.1,5.4-6.5,9.2H212.8z"/>
	<path class="st1" d="M253.1,134.1c0.3,3.6,1.5,6.4,3.7,8.5c2.1,2.1,5.4,3.2,9.9,3.2c2.2,0,4.4-0.4,6.4-1.1c2.1-0.7,4.3-2,6.8-3.7
		l7.8,10.4c-2.7,2.2-5.9,4.1-9.6,5.6c-3.7,1.5-8.2,2.3-13.3,2.3c-4.3,0-8.1-0.6-11.6-1.8c-3.4-1.2-6.3-3-8.7-5.2
		c-2.4-2.3-4.2-5-5.5-8.3c-1.3-3.3-1.9-7-1.9-11.1c0-4.3,0.8-8.6,2.5-12.8c1.7-4.3,4.1-8.1,7.2-11.4c3.1-3.4,6.8-6.1,11.2-8.2
		c4.3-2.1,9.2-3.1,14.5-3.1c3.8,0,7.3,0.6,10.3,1.8c3,1.2,5.6,2.8,7.7,4.9c2.1,2.1,3.6,4.5,4.7,7.3c1.1,2.8,1.6,5.9,1.6,9.2
		c0,2.1-0.3,4.4-0.8,6.7c-0.5,2.3-1.3,4.6-2.2,6.9H253.1z M280.2,123.5c0.4-1.3,0.6-2.6,0.6-3.9c0-2.4-0.8-4.5-2.3-6.2
		c-1.5-1.7-4-2.6-7.5-2.6c-3.8,0-7.2,1.2-10.2,3.5c-2.9,2.3-5.1,5.4-6.5,9.2H280.2z"/>
	<path class="st1" d="M321.2,158.9c-5.1,0-8.9-1.1-11.4-3.3c-2.5-2.2-3.8-5-3.8-8.3c0-1.3,0.1-2.5,0.3-3.7c0.2-1.2,0.5-2.4,0.8-3.8
		l7.2-27h-7.1l3.9-14.4h7.1l4.1-15.2h16.9l-4.1,15.2h14l-3.9,14.4h-14l-6.7,24.9c-0.1,0.4-0.3,0.9-0.3,1.4c-0.1,0.5-0.1,0.9-0.1,1.3
		c0,2.4,1.5,3.5,4.6,3.5c1.3,0,2.8-0.2,4.3-0.5c1.5-0.3,3-0.7,4.4-1.3l-3.9,14.3C330,158.1,325.9,158.9,321.2,158.9z"/>
	<path class="st1" d="M368.2,80.2h59.2l-4.2,15.5h-42.1l-4.4,16.5h37.1l-4.1,15.5h-37.1l-8.1,30.1h-17.1L368.2,80.2z"/>
	<path class="st1" d="M441.7,76.9h16.9l-21.8,81h-16.9L441.7,76.9z"/>
	<path class="st1" d="M473.6,134.1c0.3,3.6,1.5,6.4,3.7,8.5c2.1,2.1,5.4,3.2,9.9,3.2c2.2,0,4.4-0.4,6.4-1.1c2.1-0.7,4.3-2,6.8-3.7
		l7.8,10.4c-2.7,2.2-5.9,4.1-9.6,5.6c-3.7,1.5-8.2,2.3-13.3,2.3c-4.3,0-8.1-0.6-11.6-1.8c-3.4-1.2-6.3-3-8.7-5.2
		c-2.4-2.3-4.2-5-5.5-8.3c-1.3-3.3-1.9-7-1.9-11.1c0-4.3,0.8-8.6,2.5-12.8c1.7-4.3,4.1-8.1,7.2-11.4c3.1-3.4,6.8-6.1,11.2-8.2
		c4.3-2.1,9.2-3.1,14.5-3.1c3.8,0,7.3,0.6,10.3,1.8c3,1.2,5.6,2.8,7.7,4.9c2.1,2.1,3.6,4.5,4.7,7.3c1.1,2.8,1.6,5.9,1.6,9.2
		c0,2.1-0.3,4.4-0.8,6.7c-0.5,2.3-1.3,4.6-2.2,6.9H473.6z M500.7,123.5c0.4-1.3,0.6-2.6,0.6-3.9c0-2.4-0.8-4.5-2.3-6.2
		c-1.5-1.7-4-2.6-7.5-2.6c-3.8,0-7.2,1.2-10.2,3.5c-2.9,2.3-5.1,5.4-6.5,9.2H500.7z"/>
	<path class="st1" d="M541,134.1c0.3,3.6,1.5,6.4,3.7,8.5c2.1,2.1,5.4,3.2,9.9,3.2c2.2,0,4.4-0.4,6.4-1.1c2.1-0.7,4.3-2,6.8-3.7
		l7.8,10.4c-2.7,2.2-5.9,4.1-9.6,5.6c-3.7,1.5-8.2,2.3-13.3,2.3c-4.3,0-8.1-0.6-11.6-1.8c-3.4-1.2-6.3-3-8.7-5.2
		c-2.4-2.3-4.2-5-5.5-8.3c-1.3-3.3-1.9-7-1.9-11.1c0-4.3,0.8-8.6,2.5-12.8c1.7-4.3,4.1-8.1,7.2-11.4c3.1-3.4,6.8-6.1,11.2-8.2
		c4.3-2.1,9.2-3.1,14.5-3.1c3.8,0,7.3,0.6,10.3,1.8c3,1.2,5.6,2.8,7.7,4.9c2.1,2.1,3.6,4.5,4.7,7.3c1.1,2.8,1.6,5.9,1.6,9.2
		c0,2.1-0.3,4.4-0.8,6.7c-0.5,2.3-1.3,4.6-2.2,6.9H541z M568.1,123.5c0.4-1.3,0.6-2.6,0.6-3.9c0-2.4-0.8-4.5-2.3-6.2
		c-1.5-1.7-4-2.6-7.5-2.6c-3.8,0-7.2,1.2-10.2,3.5c-2.9,2.3-5.1,5.4-6.5,9.2H568.1z"/>
	<path class="st1" d="M609.2,158.9c-5.1,0-8.9-1.1-11.4-3.3c-2.5-2.2-3.8-5-3.8-8.3c0-1.3,0.1-2.5,0.3-3.7c0.2-1.2,0.5-2.4,0.8-3.8
		l7.2-27h-7.1l3.9-14.4h7.1l4.1-15.2h16.9L623,98.4h14l-3.9,14.4h-14l-6.7,24.9c-0.1,0.4-0.3,0.9-0.3,1.4c-0.1,0.5-0.1,0.9-0.1,1.3
		c0,2.4,1.5,3.5,4.6,3.5c1.3,0,2.8-0.2,4.3-0.5c1.5-0.3,3-0.7,4.4-1.3l-3.9,14.3C617.9,158.1,613.8,158.9,609.2,158.9z"/>
</g>
<path class="st2" d="M78.5,79.5c-0.1-0.2-3.6-7-13.6-10.3c-10.5-3.5-21.7,1-21.8,1l-4.9-12c0.6-0.3,15.6-6.3,30.8-1.3
	C84.5,62,90.1,73.4,90.3,73.9L78.5,79.5z"/>
<path class="st2" d="M101,62.9c-0.2-0.4-6.1-11.8-23.8-18c-18.4-6.4-37.9-0.1-38.1-0.1l-4.1-12.3c1-0.3,23.8-7.7,46.4,0.1
	c23.1,8,31,24,31.3,24.6L101,62.9z"/>
<path class="st2" d="M125.9,49.7c-0.3-0.7-9.3-18.2-36.2-27.6C62,12.6,32.9,22,32.6,22.1L28.5,9.7C29.9,9.3,62-1.1,93.9,9.9
	c32.4,11.2,43.3,33.3,43.7,34.2L125.9,49.7z"/>
</svg>
